<?xml version="1.0" encoding="UTF-8"?>
<svg id="Layer_2" data-name="Layer 2" xmlns="http://www.w3.org/2000/svg" xmlns:xlink="http://www.w3.org/1999/xlink" viewBox="0 0 63.58 52.33">
  <defs>
    <style>
      .cls-1 {
        fill: url(#linear-gradient);
      }

      .cls-1, .cls-2 {
        stroke-width: 0px;
      }

      .cls-2 {
        fill: url(#linear-gradient-2);
      }
    </style>
    <linearGradient id="linear-gradient" x1="5.64" y1="26.15" x2="57.94" y2="26.15" gradientTransform="translate(5.8 58.1) rotate(-90.31)" gradientUnits="userSpaceOnUse">
      <stop offset="0" stop-color="#6ac6ff"/>
      <stop offset=".13" stop-color="#0013d4" stop-opacity=".7"/>
      <stop offset=".89" stop-color="#09002a"/>
    </linearGradient>
    <linearGradient id="linear-gradient-2" x1="40.79" y1="57.9" x2="54.29" y2="57.9" gradientTransform="translate(5.65 57.92) rotate(-90.14)" xlink:href="#linear-gradient"/>
  </defs>
  <g id="Layer_5" data-name="Layer 5">
    <g>
      <path class="cls-1" d="M48.56,18.71c.19-.01.39-.02.59-.02l12.68-.04c.91,0,1.65-.74,1.64-1.65h0s-.03,0-.03,0l-.05-15.35C63.4.73,62.66,0,61.74,0L1.64.18C.73.18,0,.93,0,1.84l.04,14.13c0,.91.74,1.65,1.65,1.64l8.02-.02c1.37,0,2.15,1.56,1.32,2.65L.44,34.14c-.22.29-.34.64-.34,1v1.42s.02,0,.02,0l-.02.03.04,14.09c0,.91.74,1.65,1.65,1.64l61.75-.19v-1.3s.03,0,.03,0l-.04-13.49c0-.91-.74-1.65-1.65-1.64l-12.68.04c-2.12,0-3.99-1.24-5.05-2.81-.05-.08-.1-.16-.14-.24-.02-.03-.03-.07-.05-.1-.53-1.09.28-2.36,1.49-2.37l15.97-.05c.91,0,1.65-.74,1.64-1.65v-2.7c-.01-.91-.75-1.65-1.66-1.64l-15.85.05c-1.25,0-2.04-1.32-1.47-2.43.93-1.8,2.43-2.9,4.48-3.09ZM12.48,36.53l13.13-16.21c.78-.96,2.3-.76,2.79.38l5.86,13.43c.47,1.09-.32,2.3-1.51,2.31"/>
      <rect class="cls-2" x="63.43" y="3.49" width=".03" height="13.5" transform="translate(-.03 .19) rotate(-.17)"/>
    </g>
  </g>
</svg>