<?xml version="1.0" encoding="UTF-8"?>
<svg id="Layer_2" data-name="Layer 2" xmlns="http://www.w3.org/2000/svg" xmlns:xlink="http://www.w3.org/1999/xlink" viewBox="0 0 161 161">
  <defs>
    <style>
      .cls-1 {
        fill: url(#linear-gradient);
      }

      .cls-1, .cls-2, .cls-3 {
        stroke-width: 0px;
      }

      .cls-2 {
        fill: #fffde5;
      }

      .cls-3 {
        fill: url(#linear-gradient-2);
      }
    </style>
    <linearGradient id="linear-gradient" x1="1.17" y1="80.5" x2="159.83" y2="80.5" gradientTransform="translate(194.37 80.47) rotate(135)" gradientUnits="userSpaceOnUse">
      <stop offset=".01" stop-color="#6f61ef"/>
      <stop offset=".17" stop-color="#7062ef"/>
      <stop offset=".23" stop-color="#7768ef"/>
      <stop offset=".27" stop-color="#8371ef"/>
      <stop offset=".3" stop-color="#947fef"/>
      <stop offset=".53" stop-color="#b79cee"/>
      <stop offset=".8" stop-color="#e4c8e6"/>
      <stop offset=".81" stop-color="#dec0f1"/>
      <stop offset=".92" stop-color="#efd9ce"/>
    </linearGradient>
    <linearGradient id="linear-gradient-2" x1="86.27" y1="16.65" x2="106.72" y2="16.65" xlink:href="#linear-gradient"/>
  </defs>
  <g id="Layer_1-2" data-name="Layer 1">
    <circle class="cls-2" cx="80.5" cy="80.5" r="80.5"/>
    <g>
      <path class="cls-1" d="M96.36,110.4c.02.34.04.69.04,1.05v22.57c0,1.62,1.58,2.94,3.53,2.94h0s0-.05,0-.05h32.82c1.95,0,3.53-1.31,3.53-2.94V24.04s-33.74,0-33.74,0c-1.95,0-3.53,1.31-3.53,2.94v14.27c0,2.43-3.35,3.81-5.68,2.33l-29.66-18.93c-.62-.39-1.37-.61-2.15-.61h-3.04s0,.04,0,.04l-.06-.04h-30.13c-1.95,0-3.53,1.31-3.53,2.94v109.92s2.78,0,2.78,0v.05s28.85,0,28.85,0c1.95,0,3.53-1.31,3.53-2.94v-22.57c0-3.77,2.69-7.1,6.03-8.97.17-.1.34-.18.52-.26.08-.03.16-.07.25-.1,2.32-.93,5.02.53,5.02,2.67,0,7.17,0,22.11,0,28.44,0,1.62,1.58,2.93,3.53,2.93h5.77c1.95,0,3.53-1.31,3.53-2.94v-28.22c0-2.16,2.74-3.64,5.06-2.66,3.93,1.66,6.34,4.36,6.72,8.06ZM58.49,46.07l34.57,23.46c2.05,1.39,1.6,4.1-.83,4.97l-28.76,10.35c-2.33.84-4.93-.58-4.93-2.69"/>
      <rect class="cls-3" x="99.93" y="136.9" width="28.87" height=".05"/>
    </g>
  </g>
</svg>